<svg id="Layer_1" data-name="Layer 1" xmlns="http://www.w3.org/2000/svg" xmlns:xlink="http://www.w3.org/1999/xlink" viewBox="0 0 1311.32 1350.01"><defs><style>.cls-1,.cls-2,.cls-3,.cls-4,.cls-5{fill:none;}.cls-2,.cls-3,.cls-4,.cls-5{stroke:#4a4e51;stroke-linecap:round;stroke-linejoin:round;}.cls-2{stroke-width:24.1px;}.cls-3{stroke-width:27.86px;}.cls-4{stroke-width:26.06px;}.cls-5{stroke-width:21.31px;}.cls-6{fill:#4a4e51;}.cls-7{fill:#1b7f01;}.cls-8{clip-path:url(#clip-path);}</style><clipPath id="clip-path"><rect class="cls-1" x="-928.3" y="847.66" width="811.96" height="774.53"/></clipPath></defs><path class="cls-2" d="M444.74,1073H599.27V792.64c0-21-3.52-61.26-30.77-96.42C525.19,640.34,439.76,620.39,355.85,649"/><path class="cls-2" d="M891.92,1073H737.39V792.64c0-21,3.52-61.26,30.77-96.42C811.47,640.34,896.9,620.39,980.81,649"/><line class="cls-3" x1="668.33" y1="1068.91" x2="668.33" y2="512.67"/><line class="cls-4" x1="428.72" y1="1150.25" x2="915.48" y2="1150.25"/><line class="cls-5" x1="514.4" y1="1203.58" x2="839.99" y2="1203.58"/><circle class="cls-6" cx="448.5" cy="1072.3" r="32.82"/><circle class="cls-6" cx="895.68" cy="1072.3" r="32.82"/><circle class="cls-6" cx="668.33" cy="1072.3" r="32.82"/><path class="cls-7" d="M213.86,588.69c-47.68,12.58-77.18,58.78-85.79,72.27a192.65,192.65,0,0,0-22.53,49.85,230.15,230.15,0,0,0,41.62,31.69c17.73,10.55,64,37.89,108.26,30.23,48.61-8.41,89.19-58.22,103.51-122.41C320.06,601,262.71,575.8,213.86,588.69Zm117.78,97.1-60.18,13.68-15.74,24.11A23.94,23.94,0,1,1,242.89,714l18.75-26,80.47-18.85ZM342.4,648.2,345.54,662l-165.1,37.55a23.9,23.9,0,1,1-3.14-13.79ZM234.68,624a23.89,23.89,0,0,1,.34,8.61l24.62,14.93,60.18-13.68,16.63,10.47-80.7,17.8L227.6,646.78a23.64,23.64,0,0,1-10.92,5.78,23.89,23.89,0,1,1,18-28.59Z"/><path class="cls-7" d="M978.42,650.32c14.32,64.19,54.9,114,103.5,122.41,44.22,7.66,90.53-19.68,108.27-30.23a230,230,0,0,0,41.61-31.69A192.23,192.23,0,0,0,1209.28,661c-8.61-13.49-38.11-59.69-85.79-72.27C1074.64,575.8,1017.29,601,978.42,650.32Zm16.82,18.83L1075.71,688l18.75,26a24,24,0,1,1-12.83,9.59q-7.87-12-15.74-24.11l-60.18-13.68Zm164.8,16.6a23.9,23.9,0,1,1-3.13,13.79L991.81,662,995,648.2ZM1131.26,606a23.89,23.89,0,1,1-21.52,40.81L1081.6,662.1l-80.71-17.8,16.64-10.47,60.18,13.68,24.61-14.93A23.86,23.86,0,0,1,1131.26,606Z"/><path class="cls-7" d="M804.33,332.45c-2.49-72.62-59.24-130.11-75.8-146.89a283.7,283.7,0,0,0-64.28-48.66,340.08,340.08,0,0,0-59.13,49.44c-21,22-75.38,79.65-78.83,145.69-3.78,72.6,54.52,147.18,142.08,188.73C751.94,481,806.89,406.86,804.33,332.45ZM626.32,470V379l-29.49-30.5a35.28,35.28,0,1,1,18-15.3L646,368.66l.78,121.78Zm50.49,27.75H656V248.21a35.21,35.21,0,1,1,20.84,0Zm70-146.87a35,35,0,0,1-12.49-2.32L704.85,379V470l-20.48,20.48q.39-60.88.79-121.78,15.6-17.73,31.21-35.44a35.18,35.18,0,1,1,30.47,17.62Z"/><g class="cls-8"><image width="3000" height="2000" transform="translate(-1103.22 847.66) scale(0.39)" xlink:href="../../../BAHAN%20GAMBAR/1a.png"/></g></svg>