<svg id="Layer_1" data-name="Layer 1" xmlns="http://www.w3.org/2000/svg" viewBox="0 0 1311.32 1350.01"><defs><style>.cls-1,.cls-2,.cls-3,.cls-4{fill:none;stroke:#fff;stroke-linecap:round;stroke-linejoin:round;}.cls-1{stroke-width:24.1px;}.cls-2{stroke-width:27.86px;}.cls-3{stroke-width:26.06px;}.cls-4{stroke-width:21.31px;}.cls-5{fill:#fff;}</style></defs><path class="cls-1" d="M431.73,1073H586.26V792.64c0-21-3.52-61.26-30.77-96.42C512.18,640.34,426.75,620.39,342.84,649"/><path class="cls-1" d="M878.91,1073H724.38V792.64c0-21,3.52-61.26,30.77-96.42C798.46,640.34,883.89,620.39,967.8,649"/><line class="cls-2" x1="655.32" y1="1068.91" x2="655.32" y2="512.67"/><line class="cls-3" x1="415.7" y1="1150.25" x2="902.47" y2="1150.25"/><line class="cls-4" x1="501.38" y1="1203.58" x2="826.98" y2="1203.58"/><circle class="cls-5" cx="435.49" cy="1072.3" r="32.82"/><circle class="cls-5" cx="882.67" cy="1072.3" r="32.82"/><circle class="cls-5" cx="655.32" cy="1072.3" r="32.82"/><path class="cls-5" d="M200.84,588.69c-47.67,12.58-77.18,58.78-85.79,72.27a192.23,192.23,0,0,0-22.52,49.85,230.37,230.37,0,0,0,41.61,31.69c17.74,10.55,64.05,37.89,108.27,30.23,48.61-8.41,89.18-58.22,103.5-122.41C307.05,601,249.69,575.8,200.84,588.69Zm117.78,97.1-60.18,13.68q-7.86,12.06-15.74,24.11a23.57,23.57,0,0,1,3.42,7.92A23.94,23.94,0,1,1,229.88,714l18.75-26,80.46-18.85Zm10.77-37.59L332.52,662,167.43,699.54a23.9,23.9,0,1,1-3.14-13.79ZM221.67,624a23.89,23.89,0,0,1,.34,8.61l24.62,14.93,60.18-13.68,16.63,10.47-80.7,17.8q-14.09-7.65-28.15-15.32A23.88,23.88,0,1,1,221.67,624Z"/><path class="cls-5" d="M965.41,650.32c14.32,64.19,54.89,114,103.5,122.41,44.22,7.66,90.53-19.68,108.27-30.23a230.37,230.37,0,0,0,41.61-31.69A192.23,192.23,0,0,0,1196.27,661c-8.61-13.49-38.12-59.69-85.79-72.27C1061.63,575.8,1004.27,601,965.41,650.32Zm16.82,18.83L1062.69,688l18.75,26a23.93,23.93,0,1,1-12.83,9.59l-15.74-24.11L992.7,685.79Zm164.8,16.6a23.88,23.88,0,1,1-3.14,13.79L978.8,662l3.13-13.79ZM1118.25,606a23.89,23.89,0,1,1-21.52,40.81q-14.07,7.66-28.15,15.32l-80.7-17.8,16.63-10.47,60.18,13.68,24.62-14.93A23.84,23.84,0,0,1,1118.25,606Z"/><path class="cls-5" d="M791.32,332.45c-2.49-72.62-59.24-130.11-75.81-146.89a283.46,283.46,0,0,0-64.27-48.66,340.08,340.08,0,0,0-59.13,49.44c-21,22-75.38,79.65-78.83,145.69-3.79,72.6,54.52,147.18,142.08,188.73C738.93,481,793.88,406.86,791.32,332.45ZM613.31,470V379l-29.5-30.5a35.24,35.24,0,1,1,18-15.3q15.6,17.71,31.21,35.44.39,60.88.79,121.78Zm50.49,27.75H643V248.21a35.2,35.2,0,1,1,20.84,0Zm70-146.87a35,35,0,0,1-12.49-2.32L691.83,379V470l-20.47,20.48.78-121.78,31.22-35.44a35.18,35.18,0,1,1,30.46,17.62Z"/></svg>
